<?xml version="1.0" encoding="UTF-8" standalone="no"?><!DOCTYPE svg PUBLIC "-//W3C//DTD SVG 1.1//EN" "http://www.w3.org/Graphics/SVG/1.1/DTD/svg11.dtd"><svg width="100%" height="100%" viewBox="0 0 4500 4500" version="1.1" xmlns="http://www.w3.org/2000/svg" xmlns:xlink="http://www.w3.org/1999/xlink" xml:space="preserve" xmlns:serif="http://www.serif.com/" style="fill-rule:evenodd;clip-rule:evenodd;stroke-linejoin:round;stroke-miterlimit:2;"><rect id="Página-1" serif:id="Página 1" x="0" y="0" width="4500" height="4500" style="fill:none;"/><g id="Capa-1" serif:id="Capa 1"><path d="M4135.997,3569.18l-475,0l0,-2050l-150.608,1247.308l-3.283,5.05l-323.471,-2.079l-48,-444.012l167.029,-1397.933c0,0 688.194,-1.042 827.083,0c2.946,0.022 6.25,6.25 6.25,6.25l0,2635.417Z" style="fill:#f9c74f;fill-rule:nonzero;"/><path d="M3498.497,2881.68l-83.071,685.679l-679.45,1.842l-262.479,-2270.854l-452.083,0l-6.25,-6.25l0,-358.333l6.25,-6.25l825,0l233.333,1954.167l418.75,0Z" style="fill:#f9c74f;fill-rule:nonzero;"/><path d="M2360.997,1398.347l133.292,1160.458l0.042,1010.375l-479.167,0l0,-2170.833l345.833,0Z" style="fill:#f9c74f;fill-rule:nonzero;"/><path d="M1060.976,877.536c-8.783,23.75 -24.046,44.688 -34.037,68.004c-55.567,129.7 -37.696,257.054 38.221,373.596c-69.954,7.142 -132.588,56.3 -152.979,124.146c-17.083,56.846 -14.792,234.613 0.062,293.404c48.325,191.325 333.975,257.308 493.237,327.596c293.429,129.5 436.158,287.267 451.308,619.525c6.358,139.5 8.746,323.954 0,462.417c-22.388,354.529 -370.458,467.658 -674.938,472.933c18.333,-39.646 41.058,-77.375 52.958,-119.912c32.129,-114.85 6.608,-223.846 -57.142,-321.675c81.1,-17.921 139.417,-85.767 145.979,-168.654c6.638,-83.842 8.25,-272.079 -25.746,-345.387c-76.896,-165.8 -398.688,-265.954 -556.371,-351.962c-225.229,-122.85 -359.446,-268.513 -372.158,-536.179c-5.721,-120.5 -10.15,-307.554 4.658,-424.421c42.837,-338.075 343.959,-471.591 686.946,-473.429Z" style="fill:#f9c74f;fill-rule:nonzero;"/><path d="M902.664,2610.847l0,402.083c0,60.325 53.225,127.625 106.842,151.492c12.387,5.513 55.558,15.225 58.817,18.296c5.696,5.367 30.379,56.108 35.067,66.988c56.188,130.504 37.588,253.746 -34.717,372.963c-249.604,2.383 -578.587,-75.054 -670.242,-338.838c-17.971,-51.725 -26.671,-111.896 -29.271,-166.562c-7.925,-166.479 6.275,-339.317 0.171,-506.421l533.333,0Z" style="fill:#f9c74f;fill-rule:nonzero;"/><path d="M1856.83,1806.68l-533.333,0l0,-322.917c0,-44.117 -43.688,-109.092 -80.417,-132.088c-24.037,-15.05 -55.837,-18.417 -73.021,-39.475c-73.963,-90.638 -77.454,-249.792 -34.812,-354.188c5.904,-14.458 36.383,-78.929 48.771,-80.733c328.525,20.058 652.792,154.412 672.983,527.146c6.394,117.978 -0.171,402.254 -0.171,402.254c0,0 -0.574,-13.793 0,0Z" style="fill:#f9c74f;fill-rule:nonzero;"/></g></svg>